{"title":"[IFA1] Toward the Terra [Ep 02] [400p] [Dual Audio] [Animax Dub]","uid":8935245,"size":143406302,"categoryP":"video","categoryS":"tv_shows","magnet":"?xt=urn:btih:43b38d15992e6ae31c4a26475da47bf6f2abf34f&amp;dn=%5BIFA1%5D+Toward+the+Terra+%5BEp+02%5D+%5B400p%5D+%5BDual+Audio%5D+%5BAnimax+Dub%5D&amp;tr=udp%3A%2F%2Ftracker.openbittorrent.com%3A80&amp;tr=udp%3A%2F%2Fopen.demonii.com%3A1337&amp;tr=udp%3A%2F%2Ftracker.coppersurfer.tk%3A6969&amp;tr=udp%3A%2F%2Fexodus.desync.com%3A6969","seeders":1,"leechers":0,"uploader":"IFA1","files":2,"time":1379548131,"description":"Toward the Terra (English Dub)\n\nAlternate Title: Terra e... (Japanese)\n\n[quote=&quot;&quot;&gt;Plot Summary: In the future, humans are living on colonized planets and are controlled in every aspect of their life by a system of computers. Evolution has resulted in the birth of people with extraordinary powers. This new race is called Mu. Hated and feared by the humans, the Mu dream of a place to live in peace: Earth - a mystical far away planet - for humanity had to leave their home long ago as pollution and destruction increased and made it impossible to stay there any longer.\n\nJomy is a boy excitedly awaiting his birthday, the day he will enter the world of adults. Yet he knows nothing about the unknown powers sleeping in him and the shared dream of returning to Earth one day.\n\n\nInfo :\n\nType: TV Series\nEpisodes: 24\nAverage File Size: ~130 MB\nVideo: h264/AVC\nContainer: MKV\nAudio 1: English (Animax)\nAudio 2: Japanese\nAnimax Audio recorded by : 6Pack &amp; Inuyashakagomefa1\nAnimax Audio timed by : Inuyashakagomefa1\n\nSource: AnimeIndia.com\n\nSubmitter's Note: If you liked the show then please seed as much as possible to keep this torrent alive because I am not sure if I can keep it alive by myself. Consider buying the official DVDs when they are available. Not for sale or rent.\n\n\nMediaInfo:\n\nGeneral\nUnique ID : 234600628596578136744417767693077161198 (0xB07E7003D782D82B877D25C4421FA4EE)\nComplete name : D:[IFA1] Toward the Terra [Ep 02] [400p] [Dual Audio] [Animax Dub][IFA1]_T'd_te_Tera_02.mkv\nFormat : Matroska\nFormat version : Version 2\nFile size : 137 MiB\nDuration : 24mn 5s\nOverall bit rate mode : Variable\nOverall bit rate : 794 Kbps\nMovie name :\nEncoded by : Scab (Saizen Fansubs)\nEncoded date : UTC 2012-01-17 08:28:07\nWriting application : mkvmerge v4.4.0 ('Die Wiederkehr') built on Oct 31 2010 21:52:48\nWriting library : libebml v1.0.0 + libmatroska v1.0.0\nEncodedBy/EMAIL : &lt;a class=&quot;__cf_email__&quot; href=&quot;/cdn-cgi/l/email-protection&quot; data-cfemail=&quot;601301091a050e4e120503121509141320070d01090c4e030f0d&quot;&gt;[email&amp;#160;protected]&lt;/a&gt;&lt;script cf-hash='f9e31' type=&quot;text/javascript&quot;&gt;\n/* &lt;![CDATA[ */!function(){try{var t=&quot;currentScript&quot;in document?document.currentScript:function(){for(var t=document.getElementsByTagName(&quot;script&quot;),e=t.length;e--;)if(t[e].getAttribute(&quot;cf-hash&quot;))return t[e]}();if(t&amp;&amp;t.previousSibling){var e,r,n,i,c=t.previousSibling,a=c.getAttribute(&quot;data-cfemail&quot;);if(a){for(e=&quot;&quot;,r=parseInt(a.substr(0,2),16),n=2;a.length-n;n+=2)i=parseInt(a.substr(n,2),16)^r,e+=String.fromCharCode(i);e=document.createTextNode(e),c.parentNode.replaceChild(e,c)}}}catch(u){}}();/* ]]&gt; */&lt;/script&gt;\nAttachment : Yes / Yes / Yes / Yes / Yes / Yes / Yes / Yes / Yes / Yes / Yes / Yes / Yes / Yes / Yes / Yes\n\nVideo\nID : 1\nFormat : AVC\nFormat/Info : Advanced Video Codec\nFormat profile : &lt;a class=&quot;__cf_email__&quot; href=&quot;/cdn-cgi/l/email-protection&quot; data-cfemail=&quot;1c54757b745c5029322d&quot;&gt;[email&amp;#160;protected]&lt;/a&gt;&lt;script cf-hash='f9e31' type=&quot;text/javascript&quot;&gt;\n/* &lt;![CDATA[ */!function(){try{var t=&quot;currentScript&quot;in document?document.currentScript:function(){for(var t=document.getElementsByTagName(&quot;script&quot;),e=t.length;e--;)if(t[e].getAttribute(&quot;cf-hash&quot;))return t[e]}();if(t&amp;&amp;t.previousSibling){var e,r,n,i,c=t.previousSibling,a=c.getAttribute(&quot;data-cfemail&quot;);if(a){for(e=&quot;&quot;,r=parseInt(a.substr(0,2),16),n=2;a.length-n;n+=2)i=parseInt(a.substr(n,2),16)^r,e+=String.fromCharCode(i);e=document.createTextNode(e),c.parentNode.replaceChild(e,c)}}}catch(u){}}();/* ]]&gt; */&lt;/script&gt;\nFormat settings, CABAC : Yes\nFormat settings, ReFrames : 11 frames\nMuxing mode : Header stripping\nCodec ID : V_MPEG4/ISO/AVC\nBit rate : 577 Kbps\nWidth : 704 pixels\nHeight : 400 pixels\nDisplay aspect ratio : 16:9\nFrame rate mode : Variable\nOriginal frame rate : 23.976 fps\nColor space : YUV\nChroma subsampling : 4:2:0\nBit depth : 8 bits\nScan type : Progressive\nBits/(Pixel*Frame) : 0.085\nWriting library : x264 core 54 svn-635M\nEncoding settings : cabac=1 // deblock=1:0:0 / analyse=0x3:0x133 / me=umh / subme=7 / brdo=1 // me_range=24 / chroma_me=1 / trellis=2 / 8x8dct=1 / cqm=0 / deadzone=21,11 / chroma_qp_offset=0 / threads=1 / nr=0 / decimate=1 / mbaff=0 / bframes=16 / b_pyramid=1 / b_adapt=1 / b_bias=0 / direct=3 / wpredb=1 / bime=1 / keyint=250 / keyint_min=25 / scenecut=40 / rc=2pass / bitrate=577 / ratetol=1.0 / rceq='blurCplx^(1-qComp)' / qcomp=0.60 / qpmin=16 / qpmax=41 / qpstep=4 / cplxblur=20.0 / qblur=0.5 / ip_ratio=1.40 / pb_ratio=1.30\nLanguage : Japanese\nDefault : Yes\nForced : No\n\nAudio #1\nID : 2\nFormat : MPEG Audio\nFormat version : Version 1\nFormat profile : Layer 2\nMuxing mode : Header stripping\nCodec ID : A_MPEG/L2\nCodec ID/Hint : MP2\nDuration : 24mn 5s\nBit rate mode : Constant\nBit rate : 96.0 Kbps\nChannel(s) : 2 channels\nSampling rate : 44.1 KHz\nCompression mode : Lossy\nStream size : 16.5 MiB (12%)\nTitle : Animax Dubbed , Synced by Inuyashakagomefa1\nLanguage : English\nDefault : Yes\nForced : No\n\nAudio #2\nID : 4\nFormat : Vorbis\nFormat settings, Floor : 1\nCodec ID : A_VORBIS\nDuration : 24mn 5s\nBit rate mode : Variable\nBit rate : 128 Kbps\nChannel(s) : 2 channels\nSampling rate : 48.0 KHz\nCompression mode : Lossy\nStream size : 22.0 MiB (16%)\nWriting library : aoTuV Beta 5 (UTC 2006-10-24)\nLanguage : Japanese\nDefault : No\nForced : No\n\nText #1\nID : 3\nFormat : ASS\nCodec ID : S_TEXT/ASS\nCodec ID/Info : Advanced Sub Station Alpha\nCompression mode : Lossless\nDefault : Yes\nForced : No\n\nText #2\nID : 5\nFormat : ASS\nCodec ID : S_TEXT/ASS\nCodec ID/Info : Advanced Sub Station Alpha\nCompression mode : Lossless\nLanguage : English\nDefault : No\nForced : No\n\nMenu\n00:00:00.000 : en:Avant Title\n00:00:32.199 : en:Opening\n00:02:01.997 : en:Part A\n00:13:05.994 : en:Part B\n00:22:02.112 : en:Ending\n00:23:31.869 : en:Next Episode\n\n\n\n","torrent":{"xt":"urn:btih:43b38d15992e6ae31c4a26475da47bf6f2abf34f","amp;dn":"%5BIFA1%5D+Toward+the+Terra+%5BEp+02%5D+%5B400p%5D+%5BDual+Audio%5D+%5BAnimax+Dub%5D","amp;tr":["udp%3A%2F%2Ftracker.openbittorrent.com%3A80","udp%3A%2F%2Fopen.demonii.com%3A1337","udp%3A%2F%2Ftracker.coppersurfer.tk%3A6969","udp%3A%2F%2Fexodus.desync.com%3A6969"],"infoHash":"43b38d15992e6ae31c4a26475da47bf6f2abf34f","infoHashBuffer":{"type":"Buffer","data":[67,179,141,21,153,46,106,227,28,74,38,71,93,164,123,246,242,171,243,79]},"announce":[],"urlList":[]}}